<mxfile host="app.diagrams.net" agent="Mozilla/5.0 (Windows NT 10.0; Win64; x64) AppleWebKit/537.36 (KHTML, like Gecko) Chrome/138.0.0.0 Safari/537.36" version="28.0.5">
  <diagram name="Página-1" id="FOF5lxB9KZoSDBzGjb5Y">
    <mxGraphModel grid="1" page="1" gridSize="10" guides="1" tooltips="1" connect="1" arrows="1" fold="1" pageScale="1" pageWidth="827" pageHeight="1169" math="0" shadow="0">
      <root>
        <mxCell id="0" />
        <mxCell id="1" parent="0" />
        <mxCell id="ZYvAF1Tw0YfKC4RGQkig-17" value="Asignar Recurso" style="rounded=0;orthogonalLoop=1;jettySize=auto;html=1;entryX=-0.002;entryY=0.075;entryDx=0;entryDy=0;exitX=1;exitY=0.5;exitDx=0;exitDy=0;entryPerimeter=0;strokeColor=light-dark(#FF9090,#FF9090);" edge="1" parent="1" source="EviaIiw8uFwRPI2bb2Lf-8" target="ZYvAF1Tw0YfKC4RGQkig-12">
          <mxGeometry x="-0.089" y="-11" relative="1" as="geometry">
            <mxPoint as="offset" />
          </mxGeometry>
        </mxCell>
        <mxCell id="ZYvAF1Tw0YfKC4RGQkig-2" value="" style="ellipse;html=1;shape=endState;fillColor=#000000;strokeColor=#ff0000;" vertex="1" parent="1">
          <mxGeometry x="310" y="148" width="30" height="30" as="geometry" />
        </mxCell>
        <mxCell id="ZYvAF1Tw0YfKC4RGQkig-22" style="rounded=0;orthogonalLoop=1;jettySize=auto;html=1;entryX=-0.004;entryY=0.074;entryDx=0;entryDy=0;exitX=1;exitY=0.5;exitDx=0;exitDy=0;entryPerimeter=0;strokeColor=light-dark(#FF9090,#FF9090);" edge="1" parent="1" source="EviaIiw8uFwRPI2bb2Lf-8" target="ZYvAF1Tw0YfKC4RGQkig-20">
          <mxGeometry relative="1" as="geometry" />
        </mxCell>
        <mxCell id="ZYvAF1Tw0YfKC4RGQkig-24" value="Eliminar Recurso&amp;nbsp;" style="edgeLabel;html=1;align=center;verticalAlign=middle;resizable=0;points=[];" connectable="0" vertex="1" parent="ZYvAF1Tw0YfKC4RGQkig-22">
          <mxGeometry x="0.3946" y="-2" relative="1" as="geometry">
            <mxPoint x="-18" y="24" as="offset" />
          </mxGeometry>
        </mxCell>
        <mxCell id="EviaIiw8uFwRPI2bb2Lf-11" style="rounded=0;orthogonalLoop=1;jettySize=auto;html=1;entryX=0;entryY=0.5;entryDx=0;entryDy=0;exitX=0.997;exitY=0.018;exitDx=0;exitDy=0;exitPerimeter=0;strokeColor=light-dark(#FF9090,#FF9090);" edge="1" parent="1" source="ZYvAF1Tw0YfKC4RGQkig-12" target="ZYvAF1Tw0YfKC4RGQkig-2">
          <mxGeometry relative="1" as="geometry" />
        </mxCell>
        <mxCell id="ZYvAF1Tw0YfKC4RGQkig-10" value="Asignado" style="swimlane;fontStyle=0;childLayout=stackLayout;horizontal=1;startSize=26;fillColor=none;horizontalStack=0;resizeParent=1;resizeParentMax=0;resizeLast=0;collapsible=1;marginBottom=0;whiteSpace=wrap;html=1;" vertex="1" parent="1">
          <mxGeometry x="-80" y="260" width="210" height="106" as="geometry" />
        </mxCell>
        <mxCell id="ZYvAF1Tw0YfKC4RGQkig-11" value="Entry/Registrar asinacion" style="text;strokeColor=none;fillColor=none;align=left;verticalAlign=top;spacingLeft=4;spacingRight=4;overflow=hidden;rotatable=0;points=[[0,0.5],[1,0.5]];portConstraint=eastwest;whiteSpace=wrap;html=1;" vertex="1" parent="ZYvAF1Tw0YfKC4RGQkig-10">
          <mxGeometry y="26" width="210" height="26" as="geometry" />
        </mxCell>
        <mxCell id="ZYvAF1Tw0YfKC4RGQkig-12" value="Do/Monitorear&amp;nbsp; uso" style="text;strokeColor=none;fillColor=none;align=left;verticalAlign=top;spacingLeft=4;spacingRight=4;overflow=hidden;rotatable=0;points=[[0,0.5],[1,0.5]];portConstraint=eastwest;whiteSpace=wrap;html=1;" vertex="1" parent="ZYvAF1Tw0YfKC4RGQkig-10">
          <mxGeometry y="52" width="210" height="28" as="geometry" />
        </mxCell>
        <mxCell id="ZYvAF1Tw0YfKC4RGQkig-13" value="Exit/Limpiar asignacion&amp;nbsp;" style="text;strokeColor=none;fillColor=none;align=left;verticalAlign=top;spacingLeft=4;spacingRight=4;overflow=hidden;rotatable=0;points=[[0,0.5],[1,0.5]];portConstraint=eastwest;whiteSpace=wrap;html=1;" vertex="1" parent="ZYvAF1Tw0YfKC4RGQkig-10">
          <mxGeometry y="80" width="210" height="26" as="geometry" />
        </mxCell>
        <mxCell id="EviaIiw8uFwRPI2bb2Lf-10" style="rounded=0;orthogonalLoop=1;jettySize=auto;html=1;entryX=0;entryY=0.5;entryDx=0;entryDy=0;exitX=0.993;exitY=0.133;exitDx=0;exitDy=0;exitPerimeter=0;strokeColor=light-dark(#FF9090,#FF9090);fillColor=#a20025;" edge="1" parent="1" source="ZYvAF1Tw0YfKC4RGQkig-20" target="ZYvAF1Tw0YfKC4RGQkig-2">
          <mxGeometry relative="1" as="geometry" />
        </mxCell>
        <mxCell id="ZYvAF1Tw0YfKC4RGQkig-18" value="Eliminado&lt;span style=&quot;white-space: pre;&quot;&gt;&#x9;&lt;/span&gt;" style="swimlane;fontStyle=0;childLayout=stackLayout;horizontal=1;startSize=26;fillColor=none;horizontalStack=0;resizeParent=1;resizeParentMax=0;resizeLast=0;collapsible=1;marginBottom=0;whiteSpace=wrap;html=1;" vertex="1" parent="1">
          <mxGeometry x="-80" y="-18" width="210" height="106" as="geometry" />
        </mxCell>
        <mxCell id="ZYvAF1Tw0YfKC4RGQkig-19" value="&lt;font style=&quot;vertical-align: inherit;&quot;&gt;&lt;font style=&quot;vertical-align: inherit;&quot;&gt;Entry/Archivar registro&lt;/font&gt;&lt;/font&gt;" style="text;strokeColor=none;fillColor=none;align=left;verticalAlign=top;spacingLeft=4;spacingRight=4;overflow=hidden;rotatable=0;points=[[0,0.5],[1,0.5]];portConstraint=eastwest;whiteSpace=wrap;html=1;" vertex="1" parent="ZYvAF1Tw0YfKC4RGQkig-18">
          <mxGeometry y="26" width="210" height="26" as="geometry" />
        </mxCell>
        <mxCell id="ZYvAF1Tw0YfKC4RGQkig-20" value="&lt;font style=&quot;vertical-align: inherit;&quot;&gt;&lt;font style=&quot;vertical-align: inherit;&quot;&gt;Do/Mantener historial&amp;nbsp;&lt;/font&gt;&lt;/font&gt;" style="text;strokeColor=none;fillColor=none;align=left;verticalAlign=top;spacingLeft=4;spacingRight=4;overflow=hidden;rotatable=0;points=[[0,0.5],[1,0.5]];portConstraint=eastwest;whiteSpace=wrap;html=1;" vertex="1" parent="ZYvAF1Tw0YfKC4RGQkig-18">
          <mxGeometry y="52" width="210" height="28" as="geometry" />
        </mxCell>
        <mxCell id="ZYvAF1Tw0YfKC4RGQkig-21" value="&lt;font style=&quot;vertical-align: inherit;&quot;&gt;&lt;font style=&quot;vertical-align: inherit;&quot;&gt;Exit/Sin acción&amp;nbsp;&lt;/font&gt;&lt;/font&gt;" style="text;strokeColor=none;fillColor=none;align=left;verticalAlign=top;spacingLeft=4;spacingRight=4;overflow=hidden;rotatable=0;points=[[0,0.5],[1,0.5]];portConstraint=eastwest;whiteSpace=wrap;html=1;" vertex="1" parent="ZYvAF1Tw0YfKC4RGQkig-18">
          <mxGeometry y="80" width="210" height="26" as="geometry" />
        </mxCell>
        <mxCell id="EviaIiw8uFwRPI2bb2Lf-1" value="" style="ellipse;html=1;shape=startState;fillColor=#000000;strokeColor=#ff0000;" vertex="1" parent="1">
          <mxGeometry x="-760" y="148" width="30" height="30" as="geometry" />
        </mxCell>
        <mxCell id="EviaIiw8uFwRPI2bb2Lf-2" value="" style="edgeStyle=orthogonalEdgeStyle;html=1;verticalAlign=bottom;endArrow=open;endSize=8;strokeColor=#ff0000;rounded=0;entryX=-0.01;entryY=0.069;entryDx=0;entryDy=0;entryPerimeter=0;" edge="1" parent="1" source="EviaIiw8uFwRPI2bb2Lf-1" target="EviaIiw8uFwRPI2bb2Lf-6">
          <mxGeometry relative="1" as="geometry">
            <mxPoint x="-580" y="163" as="targetPoint" />
          </mxGeometry>
        </mxCell>
        <mxCell id="EviaIiw8uFwRPI2bb2Lf-3" value="Registrar Recurso" style="edgeLabel;html=1;align=center;verticalAlign=middle;resizable=0;points=[];" connectable="0" vertex="1" parent="EviaIiw8uFwRPI2bb2Lf-2">
          <mxGeometry x="-0.192" relative="1" as="geometry">
            <mxPoint as="offset" />
          </mxGeometry>
        </mxCell>
        <mxCell id="EviaIiw8uFwRPI2bb2Lf-9" style="edgeStyle=orthogonalEdgeStyle;rounded=0;orthogonalLoop=1;jettySize=auto;html=1;entryX=0;entryY=0.5;entryDx=0;entryDy=0;strokeColor=light-dark(#FF9090,#FF9090);" edge="1" parent="1" source="EviaIiw8uFwRPI2bb2Lf-4" target="EviaIiw8uFwRPI2bb2Lf-8">
          <mxGeometry relative="1" as="geometry" />
        </mxCell>
        <mxCell id="EviaIiw8uFwRPI2bb2Lf-4" value="Disponible" style="swimlane;fontStyle=0;childLayout=stackLayout;horizontal=1;startSize=26;fillColor=none;horizontalStack=0;resizeParent=1;resizeParentMax=0;resizeLast=0;collapsible=1;marginBottom=0;whiteSpace=wrap;html=1;" vertex="1" parent="1">
          <mxGeometry x="-570" y="110" width="210" height="106" as="geometry" />
        </mxCell>
        <mxCell id="EviaIiw8uFwRPI2bb2Lf-5" value="Entry/Notificar disponiblilidad" style="text;strokeColor=none;fillColor=none;align=left;verticalAlign=top;spacingLeft=4;spacingRight=4;overflow=hidden;rotatable=0;points=[[0,0.5],[1,0.5]];portConstraint=eastwest;whiteSpace=wrap;html=1;" vertex="1" parent="EviaIiw8uFwRPI2bb2Lf-4">
          <mxGeometry y="26" width="210" height="26" as="geometry" />
        </mxCell>
        <mxCell id="EviaIiw8uFwRPI2bb2Lf-6" value="Do/Esperar asignacion" style="text;strokeColor=none;fillColor=none;align=left;verticalAlign=top;spacingLeft=4;spacingRight=4;overflow=hidden;rotatable=0;points=[[0,0.5],[1,0.5]];portConstraint=eastwest;whiteSpace=wrap;html=1;" vertex="1" parent="EviaIiw8uFwRPI2bb2Lf-4">
          <mxGeometry y="52" width="210" height="28" as="geometry" />
        </mxCell>
        <mxCell id="EviaIiw8uFwRPI2bb2Lf-7" value="Exit/Actualisar estado" style="text;strokeColor=none;fillColor=none;align=left;verticalAlign=top;spacingLeft=4;spacingRight=4;overflow=hidden;rotatable=0;points=[[0,0.5],[1,0.5]];portConstraint=eastwest;whiteSpace=wrap;html=1;" vertex="1" parent="EviaIiw8uFwRPI2bb2Lf-4">
          <mxGeometry y="80" width="210" height="26" as="geometry" />
        </mxCell>
        <mxCell id="EviaIiw8uFwRPI2bb2Lf-8" value="" style="rhombus;whiteSpace=wrap;html=1;" vertex="1" parent="1">
          <mxGeometry x="-270" y="123" width="80" height="80" as="geometry" />
        </mxCell>
      </root>
    </mxGraphModel>
  </diagram>
</mxfile>
